<svg xmlns="http://www.w3.org/2000/svg" aria-hidden="true" style="position:absolute;width:0;height:0;overflow:hidden">
  <defs>
    <symbol id="icon-close-menu" viewBox="0 0 32 32">
      <path stroke-linecap="round" stroke-linejoin="round" stroke-width="3.2" d="M24 8 8 24M8 8l16 16"/>
    </symbol>
    <symbol id="icon-hero-outline-menu" viewBox="0 0 32 32">
      <path stroke-linecap="round" stroke-linejoin="round" stroke-width="3.2" d="M5.333 8h21.333M5.333 16H16M5.333 24h21.333"/>
    </symbol>
    <symbol id="icon-logo" viewBox="0 0 346 32">
      <path d="M29.082.314h-4.01c-1.237 0-2.24.983-2.24 2.195v3.929c0 1.212 1.003 2.195 2.24 2.195h4.01c1.237 0 2.24-.983 2.24-2.195V2.509c0-1.212-1.003-2.195-2.24-2.195zM6.73 23.04H2.412C1.08 23.04 0 24.023 0 25.235v3.929c0 1.212 1.08 2.195 2.412 2.195H6.73c1.332 0 2.412-.983 2.412-2.195v-3.929c0-1.212-1.08-2.195-2.412-2.195zm-.48-11.458H2.241c-1.237 0-2.24.983-2.24 2.195v3.929c0 1.212 1.003 2.195 2.24 2.195H6.25c1.237 0 2.24-.983 2.24-2.195v-3.929c0-1.212-1.003-2.195-2.24-2.195zm11.516 11.396h-4.009c-1.237 0-2.24.983-2.24 2.195v3.929c0 1.212 1.003 2.196 2.241 2.196h4.009c1.237 0 2.24-.983 2.24-2.196v-3.929c0-1.212-1.003-2.195-2.24-2.195zM6.25.086H2.241c-1.237 0-2.24.983-2.24 2.195V6.21c0 1.212 1.003 2.195 2.24 2.195H6.25c1.237 0 2.24-.983 2.24-2.195V2.281C8.49 1.069 7.487.086 6.25.086zm11.826 11.611h-4.009c-1.237 0-2.24.983-2.24 2.195v3.929c0 1.212 1.003 2.195 2.24 2.195h4.009c1.237 0 2.24-.983 2.24-2.195v-3.929c0-1.212-1.003-2.195-2.24-2.195zm11.257 11.281h-4.009c-1.237 0-2.24.983-2.24 2.195v3.929c0 1.212 1.003 2.196 2.24 2.196h4.009c1.237 0 2.24-.983 2.24-2.196v-3.929c0-1.212-1.003-2.195-2.24-2.195zM17.591.224h-4.009c-1.237 0-2.24.983-2.24 2.195v3.929c0 1.212 1.003 2.195 2.24 2.195h4.009c1.237 0 2.24-.984 2.24-2.196V2.418c0-1.212-1.003-2.195-2.24-2.195zm11.453 11.702h-4.009c-1.237 0-2.24.983-2.24 2.195v3.929c0 1.212 1.003 2.195 2.24 2.195h4.009c1.237 0 2.24-.983 2.24-2.195v-3.929c0-1.212-1.003-2.195-2.24-2.195zm30.068 18.297c-7.748 0-12.89-5.227-12.89-13.369 0-7.965 5.068-13.298 12.706-13.298 6.427 0 10.943 3.662 11.604 9.173h-5.325c-.514-3.164-2.975-4.942-6.28-4.942-4.627 0-7.381 3.627-7.381 9.067 0 5.973 3.085 9.138 7.565 9.138 3.893 0 6.39-2.133 6.647-5.333v-.356h-7.161v-3.982h12.118v3.271c-.22 6.364-4.847 10.631-11.604 10.631zm14.814-.356V3.911h12.89c6.573 0 9.181 3.093 9.181 7.573 0 4.018-2.938 5.938-6.353 6.4v.107c2.203.533 3.195 1.707 4.113 4.018 1.175 2.916 1.359 6.4 2.864 7.644v.213h-5.876c-1.248-1.209-1.542-5.013-2.203-7.324-.661-2.382-2.093-2.667-4.774-2.667h-4.7v9.991h-5.141zm5.141-14.115h7.198c3.011 0 4.407-1.707 4.407-3.911 0-2.418-1.726-3.804-4.407-3.804h-7.198v7.716zm20.344 14.115V3.911h18.324v4.124h-13.183v6.187h11.898v4.124h-11.898v7.289h13.367v4.231H99.411zm22.078 0V3.911h18.325v4.124h-13.183v6.187h11.898v4.124h-11.898v7.289h13.367v4.231H121.49zm22.078 0V3.911h6.243l8.887 14.329c2.717 4.338 3.049 5.76 3.049 5.76h.109l-.072-20.089h5.141v25.956h-6.28l-9.217-14.756c-2.093-3.342-2.644-5.369-2.644-5.369h-.073v20.124h-5.141zm27.223 0v-5.262h5.362v5.262h-5.362zm9.223 0V3.911h5.141v10.382h12.302V3.911h5.141v25.956h-5.141V18.418h-12.302v11.449h-5.141zm24.782 0 10.282-25.956h5.582l10.429 25.956h-5.509l-2.166-5.973h-11.126l-2.166 5.973h-5.325zm8.96-10.097h8.189l-2.387-6.4c-1.653-4.729-1.69-5.582-1.69-5.582h-.072s0 .853-1.653 5.582l-2.387 6.4zm19.523 10.097V3.911h12.89c6.573 0 9.181 3.093 9.181 7.573 0 4.018-2.938 5.938-6.354 6.4v.107c2.203.533 3.195 1.707 4.114 4.018 1.174 2.916 1.358 6.4 2.864 7.644v.213h-5.875c-1.25-1.209-1.542-5.013-2.205-7.324-.661-2.382-2.093-2.667-4.773-2.667h-4.701v9.991h-5.141zm5.141-14.115h7.197c3.011 0 4.408-1.707 4.408-3.911 0-2.418-1.726-3.804-4.408-3.804h-7.197v7.716zm25.794 14.115-9.842-25.956h5.509s5.325 14.542 5.875 16.32c.882 2.844 1.286 4.302 1.286 4.302h.074c-.037 0 .366-1.458 1.285-4.302.587-1.778 5.691-16.32 5.691-16.32h5.325l-9.474 25.956h-5.73zm17.309 0V3.911h18.325v4.124h-13.182v6.187h11.898v4.124h-11.898v7.289h13.366v4.231h-18.509zm31.272.356c-6.83 0-10.942-3.591-10.942-8.924h5.875c-.074 3.022 1.982 4.693 5.067 4.693 3.269 0 4.811-1.244 4.811-3.093s-1.322-2.631-6.022-3.876c-4.298-1.138-8.997-2.489-8.997-7.822 0-4.231 3.819-7.644 9.842-7.644 6.205 0 10.171 3.378 10.171 8.142h-5.691c-.037-2.524-1.8-3.911-4.48-3.911-2.608 0-4.334 1.28-4.334 2.987 0 2.027 1.432 2.667 5.179 3.698 5.544 1.493 10.024 2.098 10.024 7.893 0 4.658-4.37 7.858-10.502 7.858zm18.875-.356V8.143h-8.117V3.912h21.336v4.231h-8.078v21.724h-5.141z"/>
    </symbol>
    <symbol id="icon-cart" viewBox="0 0 32 32">
      <path d="M30.046 5.856c-0.088-0.102-0.218-0.167-0.363-0.167-0 0-0 0-0 0h-22.569l-0.92-3.084c-0.061-0.199-0.243-0.341-0.459-0.341h-3.53c-0.264 0-0.478 0.214-0.478 0.478s0.214 0.478 0.478 0.478v0h3.173l5.814 19.485c0.001 0.002 0.003 0.004 0.003 0.006l0.722 2.457c-0.456 0.452-0.739 1.078-0.739 1.771 0 0 0 0.001 0 0.002v-0c0 1.381 1.123 2.504 2.503 2.504 1.335 0 2.426-1.055 2.494-2.376h6.269c-0 0.018-0.003 0.035-0.003 0.053 0 1.379 1.122 2.502 2.501 2.502s2.502-1.122 2.502-2.502-1.122-2.502-2.502-2.502c-1.020 0-1.898 0.615-2.287 1.493h-6.617c-0.13-0.368-0.332-0.682-0.589-0.94l0 0c-0.45-0.453-1.073-0.733-1.761-0.733-0.002 0-0.004 0-0.006 0h-0c-0.328 0-0.641 0.065-0.928 0.18l-0.462-1.573h14.883c0.236 0 0.437-0.172 0.473-0.406l2.509-16.401c0.003-0.022 0.005-0.047 0.005-0.072 0-0.119-0.044-0.228-0.116-0.312l0.001 0.001zM24.943 25.576c0.852 0 1.545 0.693 1.545 1.545s-0.693 1.545-1.545 1.545-1.545-0.693-1.545-1.545 0.693-1.545 1.545-1.545zM13.682 25.396h0c0.412 0 0.799 0.161 1.090 0.452 0.279 0.278 0.452 0.663 0.452 1.088 0 0.002 0 0.003 0 0.005v-0c0 0.853-0.692 1.547-1.543 1.547-0.854-0.001-1.545-0.694-1.546-1.547v-0c0.002-0.853 0.693-1.544 1.546-1.545h0zM26.763 22.090h-14.753l-0.904-3.076c-0.013-0.041-0.029-0.077-0.050-0.11l0.001 0.002-3.658-12.26h21.727l-2.362 15.444z"></path>
    </symbol>
  </defs>
</svg>